<svg id="아비브로고_검정" xmlns="http://www.w3.org/2000/svg" xmlns:xlink="http://www.w3.org/1999/xlink" width="100" height="31.072" viewBox="0 0 100 31.072">
  <defs>
    <clipPath id="clip-path">
      <rect id="사각형_75" data-name="사각형 75" width="100" height="31.072"/>
    </clipPath>
  </defs>
  <path id="패스_51" data-name="패스 51" d="M14.285,22.028l4.5,12.079h-9ZM11.5,16.614,0,46.144H5.289l2.749-7.415H20.533l2.79,7.415H28.78l-11.5-29.53Z" transform="translate(0 -15.573)"/>
  <g id="그룹_55" data-name="그룹 55">
    <g id="그룹_54" data-name="그룹 54" clip-path="url(#clip-path)">
      <path id="패스_52" data-name="패스 52" d="M571.772,36.8V6.65h4.747V19.02c.916-1.583,3.25-3.041,6.373-3.041,6.082,0,9.37,4.622,9.37,10.58,0,6.121-3.621,10.746-9.538,10.746a6.966,6.966,0,0,1-6.246-3.208V36.8ZM581.933,20.27c-3.082,0-5.455,2.29-5.455,6.329,0,4,2.374,6.414,5.455,6.414,3.166,0,5.457-2.415,5.457-6.414,0-4.039-2.25-6.329-5.457-6.329" transform="translate(-535.941 -6.233)"/>
      <path id="패스_53" data-name="패스 53" d="M1027.759,0a3.164,3.164,0,0,1,3.166,3.164A3.144,3.144,0,1,1,1027.759,0m-2.375,10.286h4.79V30.571h-4.79Z" transform="translate(-960.425 0)"/>
      <path id="패스_54" data-name="패스 54" d="M1268.729,36.8V6.65h4.747V19.02c.916-1.583,3.251-3.041,6.374-3.041,6.082,0,9.372,4.622,9.372,10.58,0,6.121-3.626,10.746-9.54,10.746a6.967,6.967,0,0,1-6.246-3.208V36.8Zm10.163-16.535c-3.08,0-5.455,2.29-5.455,6.329,0,4,2.375,6.414,5.455,6.414,3.166,0,5.455-2.415,5.455-6.414,0-4.039-2.247-6.329-5.455-6.329" transform="translate(-1189.222 -6.233)"/>
    </g>
  </g>
</svg>
