<?xml version="1.0" encoding="utf-8"?>
<!-- Generator: Adobe Illustrator 28.0.0, SVG Export Plug-In . SVG Version: 6.00 Build 0)  -->
<svg version="1.1" id="Layer_1" xmlns="http://www.w3.org/2000/svg" xmlns:xlink="http://www.w3.org/1999/xlink" x="0px" y="0px"
	 viewBox="0 0 203.2 48.8" style="enable-background:new 0 0 203.2 48.8;" xml:space="preserve">
<g>
	<path d="M76,0.3c-5.5,0-10.4,2.2-14,5.7v0c-0.9-2.7-3-4.8-5.7-5.5c-0.7-0.2-1.9-0.3-3-0.1c-1.9,0.3-3.3,1.3-3.3,1.3L52.3,7
		c0.6-0.3,1-0.4,1.3-0.4c0.2,0,0.5-0.1,0.6-0.1c0,0,0,0,0,0c0,0,0,0,0,0c0,0,0,0,0,0l0,0c1,0,1.9,1.2,1.9,2.5h0c0,0,0,0,0,0v37.9
		h6.3V19.3C62.7,12.2,68.7,6.5,76,6.5c7.5,0,13.5,6,13.5,13.3v27.2h6.3V19.8C95.8,9,86.9,0.3,76,0.3z"/>
	<path d="M148.7,41.7c-0.6,0.3-1,0.4-1.3,0.4c-0.2,0-0.5,0.1-0.6,0.1c0,0,0,0,0,0c0,0,0,0,0,0c0,0,0,0,0,0l0,0c-0.9,0-1.7-0.9-1.9-2
		c0-0.1,0-0.3,0-0.4h0V1.9h-6.3v27.6c-0.2,7.1-6.2,12.9-13.5,12.9c-7.5,0-13.5-6-13.5-13.3V1.9h-6.3V29c0,10.8,8.9,19.5,19.8,19.5
		c5.5,0,10.4-2.2,14-5.7c0.9,2.6,3,4.7,5.6,5.4c0.7,0.2,1.9,0.3,3,0.1c1.9-0.3,3.3-1.3,3.3-1.3L148.7,41.7z"/>
	<path d="M46.8,41.6c-0.6,0.3-1,0.4-1.3,0.4c-0.2,0-0.5,0.1-0.6,0.1c0,0,0,0,0,0c0,0,0,0,0,0c0,0,0,0,0,0l0,0
		c-0.7,0-1.3-0.6-1.7-1.4l0,0L27.2,0.3h-6.2L1.3,46.9h6.6l4.7-11.1h21.6l3.3,7.9c0,0,0,0.1,0.1,0.1c1.1,2.5,2.9,3.7,5.1,4.3
		c0.7,0.2,1.9,0.3,3,0.1C47.6,48,49,47,49,47L46.8,41.6z M15.3,29.5L24,8.9l7.9,20.6H15.3z"/>
	<path d="M199.7,41.7c-0.6,0.3-1,0.4-1.3,0.4c-0.2,0-0.5,0.1-0.6,0.1c0,0,0,0,0,0c0,0,0,0,0,0c0,0,0,0,0,0l0,0c-0.9,0-1.7-0.9-1.9-2
		c0-0.1,0-0.2,0-0.3v-24c0-1.9-0.3-3.7-1-5.3c-0.8-1.9-1.9-3.6-3.4-5c-3.7-3.4-9.3-5.3-15.3-5.3c-9.8,0-17.7,5-19.3,11.8
		c2.1,0.4,4.7,1,6.2,1.3c1.2-3.8,6.7-6.7,13.1-6.7c4.4,0,8.5,1.4,11,3.7c0.8,0.7,1.4,1.6,1.8,2.6c0.3,0.9,0.5,1.9,0.5,3v5.1
		c-2.3-1-3.3-1.4-4.9-1.8c-3.3-0.9-7.4-1.3-10-1.1c-11,0.8-18.4,7.1-18.4,15.7c0,0.2,0,1.9,0.7,4.2c2,6.6,8.4,10.5,17.1,10.5
		c0.3,0,0.6,0,0.9,0c6-0.2,11.2-2.3,15-6c0,0,0,0.1,0.1,0.3c0.9,2.6,3,4.7,5.6,5.4c0.7,0.2,1.9,0.3,3,0.1c1.9-0.3,3.3-1.3,3.3-1.3
		L199.7,41.7z M189.5,29.1L189.5,29.1c0,1.3-0.2,2.6-0.7,3.8c-1,2.7-4.4,9-14.1,9.3c-6.3,0.2-10.6-2-11.8-6
		c-0.4-1.4-0.4-2.4-0.4-2.4c0-5.1,5.1-8.9,12.6-9.4c2-0.1,4.3-0.3,7.9,0.4c1.6,0.3,4.2,1.2,6.5,2.4V29.1z"/>
</g>
</svg>
