<svg width="171" height="28" viewBox="0 0 171 28" xmlns="http://www.w3.org/2000/svg">
    <g fill="#0B74D8" fill-rule="evenodd">
        <path d="m47.3 21.9 2.425-.025c.967 0 1.717-.225 2.25-.675.533-.45.892-1.117 1.075-2l3.225-14.225c-.083.433-.104.87-.063 1.313.042.441.105.854.188 1.237l3.775 14.35h2.475c.9 0 1.613-.22 2.137-.663.525-.441.913-1.129 1.163-2.062L70.55.825H68.5c-.733 0-1.308.133-1.725.4-.417.267-.7.75-.85 1.45l-2.9 13.375c-.083.35-.146.738-.188 1.162-.041.425-.045.83-.012 1.213L58.25.825h-2.375c-.783 0-1.375.163-1.775.488-.4.325-.683.829-.85 1.512L50.2 16.05c-.083.35-.146.738-.188 1.162-.041.425-.054.83-.037 1.213l-4.15-17.6H43.6c-.45 0-.813.146-1.087.438-.276.291-.346.72-.213 1.287l5 19.35zm34.125-4.375c.617 0 1.125-.196 1.525-.587.4-.392.6-.896.6-1.513v-1.15h-5.225c-.367 0-.737.046-1.112.137a1.242 1.242 0 0 0-.838.663v-4.5H80.6c.633 0 1.138-.204 1.513-.612.374-.409.562-.905.562-1.488v-1.05h-4.35c-.367 0-.737.054-1.112.163a1.327 1.327 0 0 0-.838.687V4h4.875c.233 0 .47-.05.713-.15a2.162 2.162 0 0 0 1.125-1.05c.125-.25.187-.525.187-.825V.825H74.3c-.417 0-.792.163-1.125.488-.333.325-.5.704-.5 1.137v15.075h8.75zm13.2 0c.267 0 .52-.05.763-.15.241-.1.462-.238.662-.413.2-.174.358-.391.475-.65.117-.258.175-.545.175-.862V14.4h-5.15c-.367 0-.737.05-1.112.15a1.37 1.37 0 0 0-.863.675V.825h-2.1c-.433 0-.817.163-1.15.488-.333.325-.5.704-.5 1.137v15.075h8.8zm13.125 0c.267 0 .52-.05.763-.15.241-.1.462-.238.662-.413.2-.174.358-.391.475-.65.117-.258.175-.545.175-.862V14.4h-5.15c-.367 0-.737.05-1.112.15a1.37 1.37 0 0 0-.863.675V.825h-2.1c-.433 0-.817.163-1.15.488-.333.325-.5.704-.5 1.137v15.075h8.8zm12.075.35c.633 0 1.28-.087 1.938-.262a8.543 8.543 0 0 0 1.85-.726 7.137 7.137 0 0 0 1.537-1.1c.45-.425.8-.887 1.05-1.387l-.95-1a1.778 1.778 0 0 0-1.2-.5c-.467-.017-.892.158-1.275.525-.367.317-.8.58-1.3.787-.5.209-1.025.313-1.575.313-1.533 0-2.713-.463-3.538-1.388-.825-.925-1.237-2.229-1.237-3.912 0-.783.096-1.512.287-2.188.192-.675.484-1.25.875-1.724a4.272 4.272 0 0 1 1.475-1.138c.592-.283 1.296-.433 2.113-.45.5-.017.97.046 1.412.188.442.141.855.337 1.238.587.433.3.875.438 1.325.412.45-.024.858-.229 1.225-.612l1.025-1.125a8.736 8.736 0 0 0-2.813-1.987A8.278 8.278 0 0 0 119.85.45c-1.333 0-2.53.2-3.587.6-1.059.4-1.955.98-2.688 1.738-.733.758-1.292 1.675-1.675 2.75-.383 1.074-.575 2.304-.575 3.687 0 1.35.196 2.563.587 3.638.392 1.075.955 1.983 1.688 2.725.733.741 1.63 1.308 2.688 1.7 1.058.391 2.237.587 3.537.587zm8.7-.35c1.1 0 1.833-.517 2.2-1.55l4.325-12.35a4.369 4.369 0 0 0-.013.875c.025.3.105.625.238.975l1.775 5.1h-2.1c-.367 0-.68.1-.938.3-.258.2-.454.475-.587.825l-.625 2h5.375l1.45 3.825h1.975c.45 0 .817-.18 1.1-.537.283-.359.333-.813.15-1.363l-5.7-14.8h-2.5c-.583 0-1.1.138-1.55.413-.45.274-.783.72-1 1.337l-5.7 14.95h2.125zm18.425 0c.467 0 .858-.167 1.175-.5.317-.333.475-.742.475-1.225v-4.275h1.5l4.875 6h2.15c.217 0 .408-.054.575-.162a1 1 0 0 0 .363-.388.912.912 0 0 0 .087-.5.814.814 0 0 0-.2-.475l-4.45-5.1a4.917 4.917 0 0 0 1.637-.625c.492-.3.921-.658 1.288-1.075.367-.417.65-.887.85-1.412.2-.526.3-1.105.3-1.738 0-.933-.183-1.733-.55-2.4a4.612 4.612 0 0 0-1.475-1.625 6.429 6.429 0 0 0-2.138-.912 10.965 10.965 0 0 0-2.537-.288h-4.325c-.467 0-.867.154-1.2.463-.333.308-.5.695-.5 1.162v15.075h2.1zm1.65-8.45V4h2.425c.367 0 .72.037 1.063.112.341.075.641.196.9.363.258.167.462.388.612.663.15.274.225.595.225.962 0 .733-.233 1.304-.7 1.713-.467.408-1.142.612-2.025.612h-1.075c-.333 0-.604.042-.813.125-.208.083-.412.258-.612.525zm20.125 8.45c.617 0 1.125-.196 1.525-.587.4-.392.6-.896.6-1.513v-1.15h-5.225c-.367 0-.738.046-1.113.137a1.242 1.242 0 0 0-.837.663v-4.5h4.225c.633 0 1.137-.204 1.512-.612.375-.409.563-.905.563-1.488v-1.05h-4.35c-.367 0-.738.054-1.113.163a1.327 1.327 0 0 0-.837.687V4h4.875c.233 0 .47-.05.712-.15a2.162 2.162 0 0 0 1.125-1.05c.125-.25.188-.525.188-.825V.825H161.6c-.417 0-.792.163-1.125.488-.333.325-.5.704-.5 1.137v15.075h8.75z" stroke="#0B74D8" stroke-width=".1" fill-rule="nonzero"/>
        <path d="M22.507 3.142V4.6h3.846v.101c.005.54.124 13.24-.018 14.613-.127 1.184-.389 3.649-2.913 4.905-1.9.945-2.028 1.805-2.15 2.636l-.02.13c-.087.551-.075.845.037.952.09.087.283.084.648-.01 2.789-.711 6.206-1.939 7.895-5.155.877-1.688 1.235-3.52 1.235-6.32V4.597l.097-.002c1.566-.019 2.702-1.06 2.702-2.48V.655h-8.751c-1.56 0-2.608 1-2.608 2.486M16.705 16.745c-.825 0-1.413.377-1.982.74-.888.562-1.88 1.189-3.984 1.189-3.566 0-6.468-3.21-6.468-7.155 0-4.028 2.902-7.304 6.468-7.304 1.855 0 2.874.647 3.773 1.218l.034.022c.619.404 1.204.785 1.96.785 1.363 0 2.801-1.428 3.101-1.743C19.191 3.93 16.11 0 10.74 0 4.617 0 0 4.953 0 11.52 0 18 4.617 22.888 10.74 22.888c5.489 0 8.552-3.955 8.95-4.505-.252-.3-1.462-1.64-2.985-1.64"/>
    </g>
</svg>
