<?xml version="1.0" standalone="no"?>
<!DOCTYPE svg PUBLIC "-//W3C//DTD SVG 20010904//EN"
 "http://www.w3.org/TR/2001/REC-SVG-20010904/DTD/svg10.dtd">
<svg version="1.0" xmlns="http://www.w3.org/2000/svg"
 width="1000.000000pt" height="461.000000pt" viewBox="0 0 1000.000000 461.000000"
 preserveAspectRatio="xMidYMid meet">

<g transform="translate(0.000000,461.000000) scale(0.100000,-0.100000)"
fill="#000000" stroke="none">
<path d="M628 4042 l-38 -3 0 -1753 0 -1754 47 -7 c48 -7 407 -5 430 3 10 3
13 44 13 158 l0 153 -82 3 -83 3 -3 993 -2 992 85 0 85 0 0 160 0 160 -85 0
-85 0 0 284 0 284 23 6 c12 3 50 6 85 6 l62 0 0 154 c0 135 -2 155 -17 160
-16 7 -364 5 -435 -2z"/>
<path d="M1237 4042 c-16 -3 -17 -118 -17 -1757 l0 -1754 46 -7 c32 -5 423 0
452 6 1 0 2 70 2 155 l0 155 -85 0 -85 0 0 1599 0 1599 -27 6 c-28 6 -254 4
-286 -2z"/>
<path d="M2749 4035 c-66 -21 -119 -53 -176 -106 -45 -43 -114 -149 -96 -149
4 0 1 -5 -7 -10 -13 -8 -15 -183 -15 -1477 l0 -1468 26 -55 c53 -110 148 -197
248 -226 77 -22 192 -20 265 5 110 39 213 146 235 247 7 32 17 68 22 79 6 12
8 388 7 910 l-3 890 -167 3 -168 2 0 -890 c0 -595 -3 -898 -10 -911 -6 -10
-20 -19 -30 -19 -11 0 -20 -5 -20 -11 0 -8 -5 -7 -15 1 -9 7 -18 10 -22 6 -3
-3 -15 8 -25 24 -17 29 -18 89 -18 1409 l0 1379 30 31 c34 34 65 34 93 0 16
-19 17 -56 17 -445 l0 -424 168 2 167 3 3 438 c1 289 -1 437 -8 437 -5 0 -10
9 -10 21 0 95 -102 224 -222 279 -86 41 -190 50 -269 25z"/>
<path d="M3705 4036 c-82 -21 -149 -61 -208 -127 -54 -59 -87 -126 -87 -176 0
-13 -4 -23 -10 -23 -14 0 -14 -2836 0 -2845 6 -3 10 -16 10 -29 0 -85 105
-222 208 -273 73 -36 215 -44 304 -19 54 16 135 68 170 110 10 12 22 26 28 33
5 6 19 33 31 60 12 26 27 59 33 72 16 34 16 2929 0 2939 -6 4 -14 18 -17 33
-6 23 -36 72 -77 125 -32 41 -102 86 -171 109 -79 27 -137 30 -214 11z m117
-325 c15 -8 29 -20 32 -28 3 -8 6 -638 6 -1401 0 -1220 -2 -1389 -15 -1404 -8
-10 -22 -18 -30 -18 -8 0 -15 -6 -16 -12 0 -10 -2 -10 -6 0 -2 6 -12 12 -22
12 -9 0 -22 5 -29 12 -9 9 -12 337 -12 1413 0 1346 1 1403 18 1418 10 10 22
14 25 10 4 -3 7 -1 7 6 0 7 3 11 8 9 4 -2 19 -10 34 -17z"/>
<path d="M6708 4043 c-17 -4 -18 -96 -18 -1758 0 -1544 2 -1754 15 -1759 17
-6 444 -5 463 1 9 4 12 45 12 159 l0 153 -82 3 -83 3 -3 993 -2 992 85 0 85 0
0 160 0 159 -82 3 -83 3 -3 278 -2 277 25 10 c15 6 53 10 86 10 l59 0 0 154
c0 151 0 154 -22 160 -26 7 -424 6 -450 -1z"/>
<path d="M8143 4043 c-10 -4 -13 -365 -13 -1758 0 -1557 2 -1754 15 -1759 21
-8 298 -1 313 8 9 5 12 404 12 1751 0 1714 0 1744 -19 1755 -20 10 -284 13
-308 3z"/>
<path d="M8887 4029 c-72 -24 -121 -55 -169 -105 -58 -62 -87 -113 -94 -165
-4 -27 -10 -49 -15 -49 -13 0 -12 -2837 1 -2845 6 -3 10 -16 10 -29 0 -59 34
-121 105 -192 63 -63 81 -75 140 -93 128 -40 273 -23 365 41 75 53 98 80 137
163 l38 80 3 923 3 922 -155 0 c-85 0 -161 -3 -170 -6 -14 -6 -16 -93 -16
-889 0 -486 -3 -891 -6 -900 -8 -19 -64 -50 -64 -35 0 5 -9 10 -20 10 -10 0
-24 9 -30 19 -7 14 -9 465 -8 1417 3 1385 3 1397 23 1408 11 6 22 13 25 16 12
12 30 7 54 -15 26 -24 26 -25 28 -192 1 -92 0 -280 -1 -417 -2 -197 1 -251 11
-257 7 -5 84 -9 171 -9 l158 0 -3 458 c-2 308 -7 464 -14 473 -6 8 -18 35 -27
60 -19 49 -110 148 -162 175 -111 58 -214 69 -318 33z"/>
<path d="M1690 3865 l0 -165 85 0 85 0 0 -1584 0 -1584 31 -6 c40 -8 247 -8
277 0 l22 6 0 1584 0 1584 80 0 80 0 0 165 0 165 -330 0 -330 0 0 -165z"/>
<path d="M4620 4016 c-62 -20 -114 -53 -167 -105 -29 -28 -53 -55 -53 -60 0
-5 -7 -16 -15 -24 -37 -38 -45 -119 -45 -469 0 -373 1 -383 62 -440 17 -16 52
-41 77 -54 83 -45 106 -59 113 -69 4 -5 8 -6 8 -1 0 5 8 2 18 -6 9 -9 33 -23
52 -33 18 -10 40 -24 48 -31 7 -8 18 -14 24 -14 5 0 23 -9 39 -21 l29 -20 0
-890 0 -889 -40 -25 -41 -26 -29 21 -30 21 0 855 0 854 -165 0 -165 0 0 -863
c0 -746 2 -871 15 -922 9 -33 22 -67 30 -75 8 -9 15 -21 15 -27 0 -16 130
-134 141 -128 5 4 9 2 9 -3 0 -38 257 -52 345 -18 27 11 54 23 60 27 58 45
100 91 132 147 l38 67 0 1020 0 1020 -24 32 c-21 28 -76 64 -215 143 -17 9
-73 40 -123 69 l-93 52 0 273 c0 292 -1 287 52 300 20 4 34 0 57 -20 l31 -25
2 -217 3 -217 155 0 155 0 0 265 0 266 -33 62 c-51 96 -137 168 -233 196 -61
18 -188 19 -239 2z"/>
<path d="M5570 4018 c-84 -19 -230 -139 -246 -202 -3 -14 -11 -26 -16 -26 -6
0 -8 -6 -5 -14 3 -8 1 -16 -6 -19 -9 -3 -13 -377 -15 -1615 l-2 -1612 25 -6
c18 -4 276 0 292 5 2 1 4 705 5 1565 3 1522 4 1564 22 1585 25 27 79 28 106 1
20 -20 20 -33 20 -1584 0 -1411 2 -1564 16 -1570 12 -4 290 -2 302 3 1 1 2
702 2 1560 l0 1558 21 27 c16 20 29 26 59 26 76 0 70 138 70 -1606 0 -1410 2
-1562 16 -1568 12 -4 287 -2 302 3 1 1 1 727 0 1613 -3 1393 -5 1617 -18 1646
-8 17 -18 32 -22 32 -4 0 -8 7 -8 15 0 22 -85 110 -134 139 -115 67 -263 73
-381 16 -61 -30 -67 -31 -89 -16 -75 49 -210 68 -316 44z"/>
<path d="M7339 4004 c-5 -15 -8 -88 -7 -163 l3 -136 78 -3 77 -3 0 -1583 c0
-1323 2 -1585 14 -1589 19 -7 293 -5 305 2 7 5 11 526 13 1586 l3 1580 83 3
82 3 0 164 0 165 -320 0 -320 0 -11 -26z"/>
</g>
</svg>
