<svg width="98" height="38" viewBox="0 0 98 38" fill="none" xmlns="http://www.w3.org/2000/svg">
<path d="M22.2514 8.42529C22.1145 8.2931 21.9551 8.18774 21.777 8.11303C21.597 8.03831 21.4038 8 21.1995 8C20.9951 8 20.802 8.0364 20.622 8.11303C20.442 8.18774 20.2845 8.29119 20.1476 8.42529C20.0107 8.55939 19.9038 8.71264 19.8269 8.88697C19.7501 9.0613 19.7107 9.24904 19.7107 9.44828C19.7107 9.64751 19.7501 9.83525 19.8269 10.0096C19.9038 10.1839 20.0107 10.3372 20.1476 10.4713C20.2845 10.6054 20.442 10.7088 20.622 10.7835C20.802 10.8582 20.9951 10.8966 21.1995 10.8966C21.4038 10.8966 21.597 10.8582 21.777 10.7835C21.957 10.7088 22.1145 10.6054 22.2514 10.4713C22.3882 10.3391 22.4951 10.1839 22.572 10.0096C22.6489 9.83525 22.6882 9.64751 22.6882 9.44828C22.6882 9.24904 22.6507 9.0613 22.572 8.88697C22.4951 8.71264 22.3882 8.55939 22.2514 8.42529Z" fill="#191919"/>
<path d="M26.7778 8.00195V25.8832H29.3972V8.00195H28.6397H26.7778Z" fill="#191919"/>
<path d="M13 8.00195V25.8832H15.6194V8.00195H14.8619H13Z" fill="#191919"/>
<path d="M19.915 13.1211V25.8835H22.5082V13.1211H21.7507H19.915Z" fill="#191919"/>
<path d="M56.9601 22.2564C56.6601 22.63 56.2982 22.9633 55.8745 23.2526C55.4507 23.5438 54.9782 23.7775 54.4551 23.9576C53.9338 24.1357 53.3882 24.2258 52.8238 24.2258C52.1469 24.2258 51.5281 24.0763 50.9619 23.7775C50.3975 23.4786 49.91 23.0629 49.4975 22.5304C49.0868 21.9997 48.7681 21.3675 48.5412 20.6357C48.3143 19.9039 48.2 19.1108 48.2 18.2545H57.997C57.997 17.5476 57.8545 16.8714 57.5676 16.2238C57.2807 15.5763 56.8776 15.0035 56.3601 14.5112C55.8426 14.0169 55.2238 13.6223 54.5038 13.3273C53.7857 13.0323 52.9982 12.8848 52.1413 12.8848C51.1644 12.8848 50.2812 13.0629 49.49 13.4212C48.6987 13.7775 48.02 14.2737 47.4556 14.9039C46.8912 15.5361 46.4543 16.2851 46.1468 17.153C45.8374 18.0208 45.6855 18.9671 45.6855 19.9882C45.6855 20.835 45.8543 21.6357 46.1918 22.3867C46.5293 23.1396 46.9906 23.7928 47.5718 24.3503C48.1531 24.9078 48.8375 25.3484 49.6194 25.6721C50.4031 25.9959 51.2394 26.1587 52.13 26.1587C52.805 26.1587 53.4744 26.0342 54.1326 25.7851C54.7926 25.5361 55.402 25.197 55.9626 24.7698C56.5232 24.3426 57.0145 23.8407 57.4326 23.2679C57.8526 22.6951 58.1564 22.0802 58.3439 21.4231L57.5864 21.0993C57.4664 21.4978 57.2564 21.8848 56.9564 22.2583L56.9601 22.2564ZM48.5431 15.8752C48.7268 15.4595 48.9612 15.1012 49.2425 14.7966C49.5256 14.494 49.8462 14.2564 50.2044 14.0859C50.5644 13.9154 50.9413 13.8311 51.335 13.8311C51.8056 13.8311 52.2463 13.9192 52.6569 14.0936C53.0675 14.2679 53.4275 14.5074 53.7351 14.8101C54.0426 15.1127 54.2844 15.4729 54.4607 15.8886C54.6369 16.3043 54.7251 16.7526 54.7251 17.2353L48.215 17.2238C48.2487 16.743 48.3593 16.2928 48.5431 15.8771V15.8752Z" fill="#191919"/>
<path d="M66.3053 22.6422L61.6571 13.1211H58.9214L65.124 25.8835H66.0221L71.9416 13.1211H70.7603L66.3053 22.6422Z" fill="#191919"/>
<path d="M43.8087 13.1211L41.0186 19.0828L39.3517 22.6422L34.7054 13.1211H31.9697L37.9998 25.5311L35.4404 31.0023H36.7061L42.2243 19.0847L44.9899 13.1211H43.8087Z" fill="#191919"/>
<path d="M83.6232 22.2564C83.3232 22.63 82.9613 22.9633 82.5375 23.2526C82.1138 23.5438 81.6413 23.7775 81.1182 23.9576C80.5969 24.1357 80.0513 24.2258 79.4869 24.2258C78.81 24.2258 78.1912 24.0763 77.625 23.7775C77.0606 23.4786 76.5731 23.0629 76.1606 22.5304C75.7499 21.9997 75.4312 21.3675 75.2043 20.6357C74.9774 19.9039 74.863 19.1108 74.863 18.2545H84.6601C84.6601 17.5476 84.5176 16.8714 84.2307 16.2238C83.9438 15.5763 83.5407 15.0035 83.0232 14.5112C82.5057 14.0169 81.8869 13.6223 81.1669 13.3273C80.4488 13.0323 79.6613 12.8848 78.8044 12.8848C77.8275 12.8848 76.9443 13.0629 76.1531 13.4212C75.3618 13.7775 74.683 14.2737 74.1187 14.9039C73.5543 15.5361 73.1174 16.2851 72.8099 17.153C72.5005 18.0208 72.3486 18.9671 72.3486 19.9882C72.3486 20.835 72.5174 21.6357 72.8549 22.3867C73.1924 23.1396 73.6537 23.7928 74.2349 24.3503C74.8162 24.9078 75.5006 25.3484 76.2824 25.6721C77.0662 25.9959 77.9025 26.1587 78.7931 26.1587C79.4681 26.1587 80.1375 26.0342 80.7956 25.7851C81.4557 25.5361 82.065 25.197 82.6257 24.7698C83.1863 24.3426 83.6776 23.8407 84.0957 23.2679C84.5157 22.6951 84.8195 22.0802 85.007 21.4231L84.2495 21.0993C84.1294 21.4978 83.9194 21.8848 83.6194 22.2583L83.6232 22.2564ZM75.2062 15.8752C75.3899 15.4595 75.6224 15.1012 75.9056 14.7966C76.1887 14.494 76.5093 14.2564 76.8693 14.0859C77.2293 13.9154 77.6062 13.8311 78 13.8311C78.4706 13.8311 78.9112 13.9192 79.3219 14.0936C79.7325 14.2679 80.0925 14.5074 80.4019 14.8101C80.7094 15.1127 80.9513 15.4729 81.1275 15.8886C81.3038 16.3043 81.3919 16.7526 81.3919 17.2353L74.8818 17.2238C74.9156 16.743 75.0262 16.2928 75.2099 15.8771L75.2062 15.8752Z" fill="#191919"/>
</svg>
