<?xml version="1.0" encoding="UTF-8"?>
<svg id="_레이어_1" data-name="레이어_1" xmlns="http://www.w3.org/2000/svg" version="1.1" viewBox="0 0 18 2.77">
  <!-- Generator: Adobe Illustrator 29.7.1, SVG Export Plug-In . SVG Version: 2.1.1 Build 8)  -->
  <path d="M1.85.95c.05.1.08.22.08.36v1.41h-.34v-1.36c0-.15-.04-.26-.11-.34-.07-.08-.19-.12-.35-.12-.12,0-.24.04-.36.11s-.22.17-.3.31c-.08.13-.12.28-.12.46v.94h-.34V.67h.34v.59c.05-.13.12-.24.21-.34.09-.1.2-.17.32-.23.12-.05.24-.08.36-.08.15,0,.28.03.39.09.1.06.18.14.23.24ZM3.99.67h.34v2.04h-.34v-.57c-.05.13-.12.24-.22.33-.09.1-.2.17-.32.22-.12.05-.24.08-.36.08-.15,0-.28-.03-.39-.09-.1-.06-.18-.14-.23-.24-.05-.1-.08-.22-.08-.36V.67h.34v1.37c0,.15.04.26.11.33s.19.11.35.11c.12,0,.24-.03.36-.11.12-.07.22-.17.3-.31s.12-.29.12-.46v-.94ZM7.73.81c.1.12.15.29.15.5v1.4h-.34v-1.36c0-.15-.03-.26-.09-.33-.06-.07-.15-.11-.27-.11-.11,0-.22.04-.32.11-.1.07-.17.17-.23.3-.06.13-.09.28-.09.45v.94h-.35v-1.36c0-.15-.03-.26-.09-.33-.06-.07-.15-.11-.27-.11-.12,0-.22.04-.32.11s-.18.17-.23.3c-.06.13-.09.28-.09.45v.94h-.34V.67h.34v.53c.07-.17.16-.31.3-.42s.28-.16.44-.16c.19,0,.33.05.43.16s.15.25.17.43c.07-.17.17-.32.3-.43.13-.11.28-.16.44-.16.21,0,.37.06.47.19ZM10.32,1.13c.08.16.12.35.12.56s-.04.4-.12.56c-.08.16-.2.29-.34.38-.15.09-.32.14-.51.14-.16,0-.31-.04-.45-.13-.13-.09-.24-.2-.31-.35v.43h-.34V.03h.34v1.08c.07-.15.18-.27.31-.36.13-.09.28-.13.45-.13.19,0,.36.05.51.14.15.09.26.22.34.38ZM10.07,1.69c0-.44-.26-.8-.68-.8s-.68.36-.68.8.26.8.68.8.68-.36.68-.8ZM12.4.67h.34v2.04h-.34v-.57c-.05.13-.13.24-.22.33-.09.1-.2.17-.32.22-.12.05-.23.08-.35.08-.15,0-.28-.03-.39-.09-.11-.06-.18-.14-.24-.24-.05-.1-.08-.22-.08-.36V.67h.34v1.37c0,.15.04.26.11.33s.19.11.35.11c.12,0,.24-.03.36-.11.12-.07.22-.17.3-.31.08-.13.12-.29.12-.46v-.94ZM13.53,2.45h1.34v.27h-1.77v-.25l1.3-1.52h-1.3v-.27h1.73v.25l-1.29,1.52ZM15.61.22c0,.12-.1.22-.22.22h-.03c-.12,0-.22-.1-.22-.22s.1-.22.22-.22h.03c.12,0,.22.1.22.22ZM15.21,2.72V.67h.34v2.04h-.34ZM18,1.3v1.41h-.34v-1.36c0-.15-.04-.26-.11-.34-.07-.08-.19-.12-.35-.12-.12,0-.24.04-.36.11s-.22.17-.3.31c-.08.13-.12.28-.12.46v.94h-.34V.67h.34v.59c.05-.13.12-.24.21-.34.09-.1.2-.17.32-.23.12-.05.24-.08.36-.08.15,0,.28.03.39.09.1.06.18.14.23.24.05.1.07.22.07.36Z"/>
</svg>