<svg xmlns="http://www.w3.org/2000/svg" viewBox="0 0 1000 81.66"><defs><style>.cls-1{fill:#231f20;}</style></defs><g id="레이어_2" data-name="레이어 2"><g id="LOGO_01"><path class="cls-1" d="M169.77,39.51l36,41.13H187.22L157,45.33V80.64h-13V.89h13V34.62L184.15.89h18.69Z"/><path class="cls-1" d="M35.36,34.39c-17.89-3.67-17.89-8.07-17.89-12.15,0-5.63,5.77-9.71,13.73-9.71a27.29,27.29,0,0,1,19,7.18l3,2.6L61.48,12l-3-2.4C50,2.77,42.14,0,31.4,0,16,0,4.44,9.78,4.44,23c0,16.31,13.84,21.29,27.33,24C49,50.43,49,54.72,49,58.7c0,6.13-5.88,10.43-14.31,10.43-9.14,0-15.63-2.71-23.19-9.66l-2.9-2.69L0,66.63l2.84,2.54c9.67,8.64,19.41,12.49,31.55,12.49,16,0,27.68-9.88,27.68-23.68C62.07,41.89,47.8,36.92,35.36,34.39Z"/><rect class="cls-1" x="283.39" y="1.02" width="13.05" height="79.62"/><polygon class="cls-1" points="433.05 56.38 389.18 1.02 378.43 1.02 378.43 80.64 391.29 80.64 391.29 23.95 436.2 80.64 445.92 80.64 445.92 1.02 433.05 1.02 433.05 56.38"/><path class="cls-1" d="M672.13,2.17c-21.56,0-37.83,16.66-37.83,38.76,0,22.35,15.83,38.57,37.63,38.57,21.56,0,37.8-16.66,37.8-38.76C709.73,18.39,694,2.17,672.13,2.17Zm0,65.51c-14.38,0-23-13.69-23-26.94,0-13,8-26.76,22.76-26.76,14.34,0,22.93,13.71,22.93,27C694.86,53.9,686.91,67.68,672.13,67.68Z"/><path class="cls-1" d="M822,2.17c-21.56,0-37.82,16.66-37.82,38.76,0,22.35,15.79,38.57,37.6,38.57,21.55,0,37.81-16.66,37.81-38.76C859.61,18.39,843.81,2.17,822,2.17Zm0,65.51c-14.38,0-23-13.69-23-26.94,0-13,8-26.76,22.75-26.76,14.37,0,23,13.71,23,27C844.77,53.9,836.79,67.68,822,67.68Z"/><path class="cls-1" d="M988.27,50.74V.51H977.78L934,54.64l3.9,8.42h37.53V80.64h12.82V63.06H1000V50.74Zm-12.82,0H953.06L975.45,23Z"/><polygon class="cls-1" points="539.42 0.51 539.42 0.55 527.93 0.51 527.93 13.46 539.39 13.46 539.34 80.64 552.29 80.64 552.29 0.51 539.42 0.51"/></g></g></svg>