<svg width="80" height="300" viewBox="0 0 80 300" fill="none" xmlns="http://www.w3.org/2000/svg">
<path d="M27.473 138.84C24.1544 145.505 26.5411 152.635 33.6443 156.386C40.8511 160.188 48.3633 157.125 51.599 150.718C54.7831 144.316 52.5154 137.021 45.0446 133.012C38.1278 129.312 30.7088 132.428 27.473 138.84ZM42.513 138.912C48.5807 142.09 52.1271 146.672 50.5481 149.969C48.7982 153.275 42.4508 153.523 36.4608 150.609C30.5276 147.732 26.9036 142.885 28.5137 139.604C30.2325 136.282 36.4763 135.75 42.513 138.912Z" fill="#202945"/>
<path d="M26.7224 165.459C26.7224 165.459 26.7172 163.624 29.6734 162.793C30.3723 162.576 31.0402 162.596 32.0342 162.581C32.2258 162.576 37.7447 162.581 37.7447 162.581C38.7336 162.581 42.6735 162.581 42.6735 162.581L44.004 162.581L43.0618 163.325L26.3237 176.784L26.3237 191.84L26.712 191.84C26.712 189.83 28.1617 189.613 29.0729 189.613L36.1968 189.613L44.3561 189.613C47.2502 189.613 49.2538 190.507 50.4911 192.656C51.8476 195.007 50.8846 197.978 48.9846 199.719C47.887 200.726 46.4995 201.398 45.0602 201.76C43.3672 202.178 40.5974 202.173 38.8579 202.173L29.8598 202.183C28.1875 202.204 26.7068 201.997 26.7068 200.287L26.3237 200.287L26.3237 212L26.712 212C26.712 210.176 27.5663 209.339 30.9988 209.339L42.4871 209.339C49.5385 209.117 53.2972 204.229 52.5776 194.96C52.3239 191.648 49.6214 187.825 43.5433 187.825L31.6563 187.825L29.6113 187.825C28.0219 187.825 27.0796 187.799 27.0796 185.774C27.0796 185.123 27.1987 184.668 27.4834 184.084C27.7837 183.475 28.2445 182.948 28.7829 182.534C29.2592 182.168 29.7977 181.883 30.3775 181.723C30.6519 181.651 31.1386 181.599 31.3974 181.599L31.8686 181.599L46.8671 181.599C47.8197 181.615 48.472 181.599 49.1502 181.811C52.1065 182.643 52.1013 184.477 52.1013 184.477L52.4999 184.477L52.4999 177.073L52.1013 177.073C52.1013 177.073 52.1065 178.907 49.1502 179.739C48.4513 179.956 47.7834 179.936 46.7894 179.951C46.7842 179.951 46.7635 179.951 46.7428 179.951L41.3844 179.951C41.198 179.951 41.0841 179.951 41.0841 179.951C40.2816 179.951 37.5325 179.951 36.5281 179.951C36.2951 179.951 36.1605 179.951 36.1605 179.951L31.9825 179.951L32.1067 179.858C38.1538 175.125 51.6871 164.131 52.5258 163.454L52.5258 160.933C52.5258 160.933 38.744 160.938 37.7551 160.938C37.7551 160.938 32.2362 160.943 32.0446 160.938C31.0506 160.922 30.3827 160.943 29.6838 160.726C26.7276 159.894 26.7327 158.06 26.7327 158.06L26.3237 158.06L26.3237 165.459L26.7224 165.459Z" fill="#202945"/>
<path d="M30.626 99.9452C28.8865 99.9452 27.4317 99.7799 27.1728 97.832C26.6913 94.2567 28.2082 89.6222 31.9825 88.4545L31.9825 87.9999L26.3237 87.9999L26.3237 107.349L26.3237 114.407L26.712 114.407C26.712 112.232 28.3584 112.562 30.6726 113.322L43.7607 117.941C41.8555 118.767 32.464 122.937 29.9478 123.981C27.2556 125.097 26.7068 123.448 26.7068 122.632L26.3237 122.632L26.3237 134.707L26.712 134.707C26.712 132.351 29.1505 131.095 31.5217 130.062C33.9136 129.023 52.4585 120.669 52.4999 120.648L52.4999 119.114L41.0841 115.089C37.2633 113.73 33.6444 112.397 32.3035 111.901C28.1254 110.372 27.0744 109.746 27.0744 107.768C27.0744 105.866 29.5854 105.768 32.2517 105.768L47.8404 105.768C50.2116 105.768 52.1064 106.677 52.1064 108.605L52.4999 108.605L52.4999 102.461L52.4999 99.9452L52.4999 87.9999L46.8464 87.9999L46.8464 88.4545C50.6258 89.6274 52.1375 94.2567 51.656 97.8372C51.3972 99.7799 49.9527 99.9504 48.2183 99.9504L44.7496 99.9504L40.5198 99.9504L40.5198 98.3229C40.5198 96.5714 40.8666 94.298 42.8754 93.5902L42.8754 93.089L36.8801 93.089L36.8801 93.5902C38.8837 94.298 39.2358 96.5662 39.2358 98.3229L39.2358 99.9504L38.7077 99.9504C38.7025 99.9452 30.6312 99.9452 30.626 99.9452Z" fill="#202945"/>
</svg>
