<svg width="130" height="24" viewBox="0 0 130 24" fill="none" xmlns="http://www.w3.org/2000/svg">
<g clip-path="url(#clip0_237_2)">
<path d="M14.0065 23.1581H8.03513L0 0.693558H6.24203L11.08 16.6623L15.9011 0.693558H22.1431L14.0065 23.1581Z" fill="white"/>
<path d="M24.3931 23.1581V0.693558H30.2291V23.1581H24.3931Z" fill="white"/>
<path d="M52.1183 19.8764C51.3571 20.7053 49.6316 22.1601 46.7728 22.8029C45.4703 23.0904 44.3538 23.1581 43.0175 23.1581H33.832V0.693558H41.292C42.0194 0.693558 42.713 0.693558 43.4234 0.72739C44.4215 0.795054 48.3291 0.879635 51.1879 3.14639C51.6277 3.46779 52.3213 4.07677 53.0487 5.17632C53.8776 6.41119 54.808 8.4242 54.808 11.7228C54.808 15.9519 53.387 18.4723 52.1183 19.8595V19.8764ZM47.6017 7.29082C47.2634 6.90176 46.5698 6.14053 45.318 5.76838C44.2185 5.41314 43.2204 5.44697 42.104 5.44697H39.7527V18.6415H41.5458C43.2712 18.6415 45.2673 18.54 46.7897 17.4574C47.9908 16.5947 48.955 14.9707 48.955 11.9258C48.955 10.2004 48.752 8.64411 47.6355 7.27391L47.6017 7.29082Z" fill="white"/>
<path d="M58.0222 23.1581V0.693558H63.8583V23.1581H58.0222Z" fill="white"/>
<path d="M80.1315 23.1581H74.1601L66.125 0.693558H72.367L77.205 16.6623L82.0261 0.693558H88.2681L80.1315 23.1581Z" fill="white"/>
<path d="M90.5178 23.1581V0.693558H96.3539V23.1581H90.5178Z" fill="white"/>
<path d="M124.164 23.1581V0.693558H130V23.1581H124.164Z" fill="white"/>
<path d="M105.437 11.9252V11.9089H105.421L105.437 11.9252Z" fill="white"/>
<path d="M111.206 19.1152C109.938 19.1152 109.041 18.7261 108.618 18.4723C107.316 17.7788 105.928 16.3748 105.539 13.2791C105.455 12.6871 105.438 12.2134 105.438 11.9089C105.438 11.8582 105.438 11.8074 105.438 11.7736C105.438 8.69486 106.707 6.81718 107.654 5.95446C108.973 4.75342 110.547 4.61809 111.206 4.61809C113.591 4.61809 115.029 6.17437 115.452 6.78334C115.621 6.98634 115.807 7.27391 116.044 7.69681L120.815 5.80221C120.578 5.41314 120.053 4.43201 119.208 3.50163C117.144 1.23487 114.099 0 110.936 0C106.148 0 103.509 2.60507 102.444 3.87378C99.7541 6.98634 99.585 10.5218 99.585 11.892C99.585 13.6682 99.8895 20.1978 106.064 22.8705C108.094 23.7332 110.005 23.8178 110.834 23.8178C115.418 23.8178 118.328 21.2804 119.394 20.1301C119.732 19.7411 120.223 19.0813 120.916 18.0664L116.061 16.1379C115.435 17.1698 114.116 19.1152 111.189 19.1152H111.206Z" fill="white"/>
</g>
<defs>
<clipPath id="clip0_237_2">
<rect width="130" height="24" fill="white"/>
</clipPath>
</defs>
</svg>
